{"title":"Wentworth Season 2 EP4 The Danger Within WEB-DL","uid":10394006,"size":406781112,"categoryP":"video","categoryS":"tv_shows","magnet":"?xt=urn:btih:6cc8f8f8ca65ce7fc72d6475e5885e8c65f265c8&amp;dn=Wentworth+Season+2+EP4+The+Danger+Within+WEB-DL&amp;tr=udp%3A%2F%2Ftracker.openbittorrent.com%3A80&amp;tr=udp%3A%2F%2Fopen.demonii.com%3A1337&amp;tr=udp%3A%2F%2Ftracker.coppersurfer.tk%3A6969&amp;tr=udp%3A%2F%2Fexodus.desync.com%3A6969","seeders":1,"leechers":0,"uploader":"jmanwf","files":1,"time":1403237614,"description":"Description\nOriginal Air-date: June 10, 2014\n\n\nWritten by: Marcia Gardner\n\n\nDirected by: Catherine Millar\n\n\n\nBea faces down an assassination attempt from the Holt clan.\n\n\nFormat : MPEG-4\nFormat profile : Base Media / Version 2\nCodec ID : mp42\nFile size : 388 MiB\nDuration : 44mn 54s\nOverall bit rate mode : Variable\nOverall bit rate : 1 208 Kbps\nEncoded date : UTC 2014-06-19 12:52:30\nTagged date : UTC 2014-06-19 13:37:27\nWriting application : HandBrake 0.9.9 2013052900\n\nVideo\nID : 1\nFormat : AVC\nFormat/Info : Advanced Video Codec\nFormat profile : &lt;a class=&quot;__cf_email__&quot; href=&quot;/cdn-cgi/l/email-protection&quot; data-cfemail=&quot;a7efcec0cfe7eb938996&quot;&gt;[email&amp;#160;protected]&lt;/a&gt;&lt;script cf-hash='f9e31' type=&quot;text/javascript&quot;&gt;\n/* &lt;![CDATA[ */!function(){try{var t=&quot;currentScript&quot;in document?document.currentScript:function(){for(var t=document.getElementsByTagName(&quot;script&quot;),e=t.length;e--;)if(t[e].getAttribute(&quot;cf-hash&quot;))return t[e]}();if(t&amp;&amp;t.previousSibling){var e,r,n,i,c=t.previousSibling,a=c.getAttribute(&quot;data-cfemail&quot;);if(a){for(e=&quot;&quot;,r=parseInt(a.substr(0,2),16),n=2;a.length-n;n+=2)i=parseInt(a.substr(n,2),16)^r,e+=String.fromCharCode(i);e=document.createTextNode(e),c.parentNode.replaceChild(e,c)}}}catch(u){}}();/* ]]&gt; */&lt;/script&gt;\nFormat settings, CABAC : Yes\nFormat settings, ReFrames : 4 frames\nCodec ID : avc1\nCodec ID/Info : Advanced Video Coding\nDuration : 44mn 54s\nBit rate : 1 108 Kbps\nWidth : 720 pixels\nHeight : 576 pixels\nDisplay aspect ratio : 16:9\nFrame rate mode : Variable\nFrame rate : 25.000 fps\nMinimum frame rate : 7.042 fps\nMaximum frame rate : 25.000 fps\nStandard : PAL\nColor space : YUV\nChroma subsampling : 4:2:0\nBit depth : 8 bits\nScan type : Progressive\nBits/(Pixel*Frame) : 0.107\nStream size : 356 MiB (92%)\nWriting library : x264 core 130 r2273 b3065e6\nEncoded date : UTC 2014-06-19 12:52:30\nTagged date : UTC 2014-06-19 13:37:27\nColor primaries : BT.601 PAL\nTransfer characteristics : BT.709\nMatrix coefficients : BT.601\n\nAudio\nID : 2\nFormat : AAC\nFormat/Info : Advanced Audio Codec\nFormat profile : LC\nCodec ID : 40\nDuration : 44mn 54s\nBit rate mode : Variable\nBit rate : 96.0 Kbps\nMaximum bit rate : 118 Kbps\nChannel(s) : 2 channels\nChannel positions : Front: L R\nSampling rate : 48.0 KHz\nCompression mode : Lossy\nStream size : 30.8 MiB (8%)\nEncoded date : UTC 2014-06-19 12:52:30\nTagged date : UTC 2014-06-19 13:37:25\n\n\n\nADD FREE\n\n\nAND NO TV LOGO ON SCREEN","torrent":{"xt":"urn:btih:6cc8f8f8ca65ce7fc72d6475e5885e8c65f265c8","amp;dn":"Wentworth+Season+2+EP4+The+Danger+Within+WEB-DL","amp;tr":["udp%3A%2F%2Ftracker.openbittorrent.com%3A80","udp%3A%2F%2Fopen.demonii.com%3A1337","udp%3A%2F%2Ftracker.coppersurfer.tk%3A6969","udp%3A%2F%2Fexodus.desync.com%3A6969"],"infoHash":"6cc8f8f8ca65ce7fc72d6475e5885e8c65f265c8","infoHashBuffer":{"type":"Buffer","data":[108,200,248,248,202,101,206,127,199,45,100,117,229,136,94,140,101,242,101,200]},"announce":[],"urlList":[]}}